<?xml version="1.0" encoding="UTF-8"?><svg id="Layer_2" xmlns="http://www.w3.org/2000/svg" viewBox="0 0 361.27 363.08"><defs><style>.cls-1{fill:#fff;}</style></defs><g id="Beerwalks"><g id="Logo"><ellipse cx="180.64" cy="181.54" rx="180.64" ry="181.54"/><ellipse class="cls-1" cx="180.64" cy="181.54" rx="175.74" ry="176.61"/><path d="M305.51,127c-4.58,4.24-9.06,8.39-13.54,12.53-2.52,2.33-5.02,4.69-7.56,6.99-2.63,2.38-6.54,2.51-8.91-.13-4.33-4.84-10.14-4.83-15.62-2.37-3.9,1.75-6.85,4.77-10.04,7.44-4.72,3.95-9.38,7.98-14.07,11.98-1.73,1.47-2.2,3.21-1.37,5,.78,1.67,2.49,2.69,4.26,2.27,.87-.21,1.73-.73,2.43-1.31,3.93-3.28,7.82-6.62,11.72-9.95,1.94-1.66,2.68-1.6,4.31,.32,2,2.37,4.01,4.73,6.04,7.08,4.16,4.82,10.75,5.54,15.83,1.73,.15-.11,.28-.25,.44-.35,1.06-.73,2.2-.61,2.89,.29,.69,.9,.56,2.07-.4,2.89-2.36,2-5.1,3.15-8.16,3.54-.35,.04-.71,.09-1.32,.17,4.67,5.48,9.19,10.79,13.84,16.25,1.4-1.25,2.76-2.45,4.11-3.66,8.47-7.6,16.94-15.2,25.42-22.79,1-.9,3.3-1.18,4.49-.58,1.21,.61,1.79,1.97,1.38,3.2-.48,1.43-1.88,2.27-3.36,1.75-.85-.3-1.3-.03-1.84,.46-9.06,8.13-18.12,16.27-27.18,24.4-.07,.06-.11,.15-.28,.39,.7,.84,1.43,1.74,2.18,2.61,4.45,5.13,3.94,11.53-1.24,15.92-6.1,5.17-12.18,10.36-18.24,15.56-5.16,4.42-11.35,3.97-15.82-1.18-.3-.35-.62-.69-1.04-1.16-2.58,2.65-5.56,4.21-9.25,2.88-3.62-1.31-5.1-4.22-5.21-7.9-5.25-1.45-6.78-3.29-7.26-8.63-4.93-.82-7.48-4.03-7.38-8.7-3.87-.62-6.54-2.7-7.18-6.74-.65-4.06,1.76-6.6,4.79-8.71-3.22-4.4-4.38-9.52-5.87-14.47-1.48-4.94-3.36-9.57-6.52-13.74-3.83-5.05-7.29-10.38-10.85-15.62-6.46-9.51-12.87-19.05-19.31-28.57-.05-.08-.14-.13-.3-.27-1.68,2.48-3.36,4.95-5.03,7.42-4.05,5.99-8.05,12.01-12.14,17.97-5.23,7.62-10.72,15.07-15.71,22.83-1.86,2.89-2.71,6.44-3.9,9.74-1.32,3.65-2.46,7.38-3.79,11.03-.44,1.21-1.25,2.28-2.01,3.62,.43,.38,1,.91,1.61,1.39,2.61,2.09,3.86,4.77,3.03,8.06-.88,3.49-3.25,5.49-6.86,5.96-.09,.01-.17,.06,.06-.03-.55,1.79-.85,3.47-1.58,4.93-1.02,2.03-2.87,3.14-5.11,3.63-.4,.09-.96,.58-1.01,.94-.57,4.82-2.52,6.96-7.39,7.91,0,3.76-1.55,6.66-5.22,7.97-3.65,1.3-6.59-.25-9.17-2.88-.71,.77-1.32,1.46-1.96,2.13-3.83,3.92-10.02,4.3-14.21,.77-6.54-5.52-13.05-11.07-19.52-16.67-4.42-3.82-4.92-10.11-1.26-14.67,.88-1.1,1.82-2.15,2.85-3.37-1.75-1.58-3.47-3.15-5.21-4.7-8.65-7.74-17.29-15.5-25.98-23.2-1.14-1.01-1.57-2.13-1.52-3.57,.06-1.57,1.28-2.75,2.83-2.66,1.52,.09,2.63,1.43,2.55,2.99-.02,.48,.02,1.17,.33,1.44,9.8,8.84,19.64,17.65,29.63,26.6,4.58-5.38,9.14-10.71,13.83-16.22-.92-.15-1.68-.26-2.42-.4-2.55-.48-4.83-1.55-6.83-3.18-1.1-.9-1.31-2.16-.57-3.08,.77-.96,1.91-.98,3.12-.08,5.37,4.04,11.87,3.31,16.23-1.81,2.01-2.36,4.02-4.73,6.02-7.09,1.31-1.55,2.24-1.65,3.81-.32,4.12,3.49,8.22,7.03,12.36,10.5,2.36,1.98,5.34,1.24,6.46-1.53,.66-1.63,.17-3.29-1.4-4.64-5.44-4.64-10.89-9.26-16.31-13.91-2.61-2.24-5.19-4.5-8.43-5.82-2.47-1-4.99-1.64-7.69-1.36-2.59,.27-4.76,1.37-6.57,3.21-3.39,3.45-6.78,3.57-10.36,.28-7.03-6.46-14.01-12.96-21.03-19.43-.72-.66-1.54-1.22-2.32-1.81-1.05-.8-1.46-1.85-1.03-3.1,.43-1.24,1.4-1.91,2.71-1.83,1.22,.08,2.04,.76,2.43,2,.19,.63,.54,1.29,1.01,1.73,7.04,6.58,14.12,13.13,21.18,19.68,1.44,1.33,2.77,1.45,3.95,.2,5.27-5.58,11.53-6.14,18.38-3.65,3.27,1.18,6.1,3.1,8.7,5.38,2.23,1.95,4.5,3.85,6.75,5.76,1.65-.87,3.22-1.78,4.86-2.54,3.75-1.74,6.18-5,9.08-7.72,12.62-11.83,25.21-23.69,37.82-35.53,1.17-1.09,2.08-1.08,3.35,0,2.87,2.43,5.72,4.87,8.65,7.35,2.87-2.44,5.68-4.85,8.52-7.24,1.47-1.24,2.3-1.23,3.66,.06,13.38,12.6,26.82,25.14,40.08,37.87,2.98,2.86,6.19,5.13,9.87,6.87,.5,.24,.95,.59,1.54,.96,2.29-1.95,4.67-3.93,7-5.96,4.38-3.8,9.29-6.39,15.2-6.62,4.42-.17,8.19,1.41,11.28,4.57,1.69,1.73,2.76,1.77,4.55,.11,6.79-6.29,13.6-12.58,20.37-18.89,1.09-1.02,2.11-1.75,3.58-.7,.16,.11,.51,0,.75-.07,1.64-.44,3.03,.08,3.6,1.36,.51,1.16,.07,2.66-1,3.37-1.17,.79-2.6,.5-3.75-.75-.06-.07-.12-.14-.29-.34Zm-199.09,36.19c-.99,1.16-1.82,2.23-2.76,3.21-1.93,2.04-3.66,4.41-5.95,5.92-2.29,1.51-4.15,3.29-5.87,5.32-.46,.54-.9,1.08-1.36,1.62-3.41,4-6.81,8-10.29,12.09,1.62,1.4,3.17,2.75,4.73,4.09,6.67,5.72,13.34,11.44,20.04,17.13,.34,.29,.98,.46,1.4,.35,1.16-.31,2.28-.8,3.49-1.24,1.19-5.85,1.99-6.79,7.39-8.44-.06-2.14,.45-4.12,1.92-5.82,1.46-1.69,3.36-2.47,5.6-2.75-.23-2.44,.49-4.51,2.14-6.24,1.62-1.7,3.71-2.33,6.35-2.4-9.11-7.76-17.9-15.25-26.82-22.84Zm174.44,28.22c-.13-.24-.18-.37-.27-.48-4.29-5.04-8.58-10.08-12.89-15.11-.66-.77-1.32-1.69-2.18-2.12-2.49-1.26-4.52-2.99-6.27-5.13-1.47-1.8-3.01-3.56-4.55-5.38-8.94,7.62-17.76,15.13-26.84,22.87,2.72,.02,4.81,.66,6.49,2.37,1.71,1.75,2.22,3.93,2.1,6.24,4.98,.94,6.65,2.88,7.56,8.65,4.52,.75,7.05,3.28,7.32,8.44,1.03,.34,2.1,.56,3.04,1.05,.83,.43,1.3,.27,1.96-.29,6.01-5.19,12.05-10.35,18.08-15.51,2.17-1.86,4.33-3.73,6.48-5.58Zm-39.87-37.74c-.78-.4-1.39-.65-1.94-1-2.25-1.44-4.69-2.66-6.68-4.41-3.55-3.13-6.81-6.6-10.22-9.9-2.35-2.27-4.75-4.5-7.2-6.8-4.02,3.44-7.93,6.78-11.85,10.14,.18,.34,.27,.56,.39,.75,2.92,4.25,5.86,8.5,8.78,12.76,1.96,2.86,4.27,5.56,5.74,8.66,1.77,3.74,2.83,7.82,4.19,11.75,.86,2.5,1.7,5,2.62,7.69,3.58-3.05,6.92-5.91,10.31-8.81-.22-.18-.31-.28-.42-.34-5.77-3.18-6.41-9.68-1.39-13.95,2.5-2.13,5-4.26,7.67-6.54Zm-115.09,20.78l10.45,8.91c1.29-4.01,2.52-7.77,3.71-11.54,1.31-4.16,2.55-8.33,5.33-11.85,1.57-1.99,2.97-4.11,4.41-6.19,2.75-3.97,5.47-7.95,8.25-12.01-4.01-3.46-7.94-6.85-11.92-10.28-4.78,4.58-9.49,8.96-14.04,13.51-2.98,2.98-5.99,5.83-9.88,7.59-.67,.3-1.31,.68-2.09,1.08,2.79,2.39,5.52,4.63,8.11,7,.91,.83,1.74,1.89,2.22,3.01,1.8,4.23,.08,8.28-4.56,10.76Zm157.64,20.03c-1.1,.94-2.2,1.87-3.3,2.81-7.09,6.09-14.18,12.19-21.29,18.25-.72,.62-.89,1.11-.7,2.12,.26,1.37,.24,2.92-.13,4.25-.31,1.12-.24,1.82,.57,2.56,.31,.28,.54,.65,.83,.95,2.49,2.62,6.27,2.88,9.02,.54,6.38-5.41,12.74-10.84,19.07-16.3,3.25-2.8,3.44-6.52,.6-9.79-1.53-1.77-3.06-3.54-4.66-5.41Zm-205.98-.01c-1.75,2.04-3.44,3.92-5.04,5.88-2.3,2.82-2.08,6.7,.57,8.99,6.33,5.46,12.75,10.82,19.05,16.31,3.28,2.86,7.76,2.76,11-2.07,.15-.23-.02-.67-.03-1.01-.1-1.7-.41-3.43-.22-5.1,.1-.91-.06-1.34-.67-1.86-3.72-3.16-7.44-6.33-11.14-9.51-4.49-3.85-8.97-7.71-13.52-11.62Zm82.78-56.08c3.62-5.36,7.13-10.55,10.69-15.82-2.73-2.33-5.35-4.58-8-6.85-4.64,4.35-9.2,8.61-13.87,12.99l11.19,9.68Zm37.79-22.6c-2.76,2.31-5.41,4.53-8.09,6.78,3.61,5.33,7.13,10.53,10.7,15.8,3.8-3.25,7.45-6.38,11.24-9.62-4.65-4.35-9.19-8.6-13.84-12.96Zm-66.84,88.58c-.13-.34-.23-1.19-.7-1.67-1.25-1.25-2.57-2.48-4.05-3.44-1.56-1.02-3.47-.42-4.58,1.12-1.01,1.41-.87,3.37,.43,4.6,1.05,1,2.16,1.95,3.33,2.8,1.11,.81,2.38,.84,3.59,.19,1.26-.67,1.89-1.77,1.97-3.61Zm108.7-1.82c-.19-1.64-1-2.64-2.2-3.32-1.32-.74-2.64-.55-3.82,.34-1.01,.76-1.96,1.6-2.91,2.44-1.5,1.33-1.67,3.48-.42,5.05,1.19,1.49,3.31,1.8,4.91,.61,1.09-.81,2.17-1.67,3.07-2.66,.62-.68,.93-1.63,1.38-2.46Zm-111.25-8.43c.11,.32,.16,1.16,.6,1.59,1.36,1.33,2.76,2.68,4.36,3.69,1.43,.91,3.31,.23,4.33-1.19,.91-1.26,.95-3.25-.1-4.3-1.15-1.15-2.37-2.29-3.74-3.18-2.36-1.53-5.43,.23-5.45,3.38Zm-4.71,18.92c-.14-.37-.22-1.12-.65-1.54-1.33-1.3-2.69-2.63-4.23-3.65-1.46-.96-3.44-.3-4.46,1.16-1.04,1.48-.94,3.35,.38,4.62,1.01,.97,2.1,1.88,3.22,2.72,1.14,.86,2.44,.97,3.71,.29,1.3-.7,1.93-1.85,2.03-3.6Zm-17.48,6.62c.16,.58,.14,1.35,.52,1.7,1.49,1.39,2.98,2.84,4.7,3.91,1.41,.88,3.25,.05,4.24-1.46,.9-1.36,.74-3.21-.47-4.36-1.02-.97-2.09-1.88-3.2-2.74-1.13-.89-2.42-1.04-3.69-.36-1.28,.68-2.06,1.75-2.09,3.31Zm125.81-25.82c.05-1.45-.57-2.56-1.84-3.24-1.26-.67-2.56-.63-3.72,.24-1.12,.85-2.19,1.77-3.23,2.72-1.17,1.07-1.37,2.43-.81,3.87,.54,1.39,1.62,2.17,3.1,2.31,2.33,.22,6.45-3.55,6.49-5.91Zm22.08,25.82c.04-1.59-.77-2.71-2.12-3.36-1.34-.65-2.63-.42-3.76,.62-.89,.83-1.8,1.64-2.77,2.38-1.15,.87-1.52,2.03-1.2,3.34,.37,1.52,1.35,2.57,2.94,2.86,2.29,.42,6.79-3.24,6.91-5.57,0-.09,0-.19,0-.28Zm-7.08-8.39c-.28-1.64-.88-2.74-2.17-3.4-1.29-.67-2.58-.55-3.72,.3-1.13,.84-2.22,1.74-3.22,2.73-1.48,1.46-1.42,3.47,.02,5.04,1.33,1.44,3.31,1.49,4.9,.13,.86-.73,1.82-1.36,2.56-2.2,.67-.76,1.1-1.73,1.63-2.6Zm-52.23-98.26c-1.49-1.38-2.89-2.68-4.34-4.03-2.12,1.83-4.16,3.59-6.26,5.4,1.11,1.64,2.15,3.18,3.23,4.77,2.5-2.09,4.9-4.08,7.37-6.14Zm-18.58,1.36c-2.14-1.84-4.16-3.57-6.27-5.39l-4.25,3.97c2.49,2.12,4.85,4.14,7.28,6.22,1.13-1.68,2.15-3.18,3.24-4.8Z"/><path d="M175.25,281.6c-3.72-2.2-7.39-4.49-11.24-6.45-7.53-3.84-15.48-6.28-24.04-6.19-.42,0-.85,0-1.27,0-4.59,.12-9.09,.69-13.27,2.76-6.18,3.07-8.52,9.76-5.54,15.96,1.67,3.49,4.5,6.02,7.56,8.22,3.21,2.3,6.52,4.16,9.97,5.37,2.14,.76,4.33,1.26,6.58,1.47,3.44,.32,7.02-.05,10.75-1.27,4.03-1.32,8.06-1.72,12.23-1.19,1.43,.18,2.46-.45,3.05-1.75,2.08-4.61,4.16-9.23,6.22-13.85,.62-1.41,.38-2.27-1-3.08Zm-8.41,14.06c-.12,.25-.68,.48-1,.44-4.45-.55-8.68,.37-12.9,1.68-8.2,2.54-15.49,.04-22.23-4.54-2-1.36-3.8-3.09-5.45-4.87-4.53-4.88-3.04-11.23,3.19-13.57,5.73-2.16,11.69-2.26,17.67-1.37,8.78,1.29,16.52,5.18,23.99,9.74,.56,.34,1.12,.68,1.82,1.1-1.72,3.87-3.38,7.64-5.09,11.39Z"/><path d="M220.89,346.16c-1.21-4.63-2.34-9.27-3.47-13.92-.59-2.42-1.5-3.27-3.96-3.4-3.09-.17-6-.88-8.79-2.28-3.4-1.71-6.85-3.44-10.69-3.86-9.72-1.05-18.27,1.9-25.83,7.94-6.21,4.96-6.42,15.37,1.44,19.93,6.42,3.72,13.33,5.21,20.68,5.33,2.66-.25,5.34-.4,7.99-.76,7.46-1.02,14.51-3.47,21.41-6.38,1.1-.46,1.57-1.28,1.22-2.61Zm-40.26,4.44c-3.06-.75-6.02-2.09-8.84-3.54-5.72-2.94-5.2-10.05-.84-13.53,3.58-2.86,7.6-4.81,12.01-6.02,6.1-1.68,11.97-1.37,17.65,1.6,3.76,1.97,7.65,3.62,12.01,3.76,.36,.01,.89,.62,1.01,1.04,1.01,3.85,1.95,7.71,2.96,11.77-11.69,4.61-23.42,7.98-35.96,4.92Z"/><path d="M247.4,330.28c-1.19-3.96-4.49-6.67-8.75-7.08-6.65-.65-12.57,1.74-18.37,4.53-.95,.46-1.18,1.36-.92,2.41,1.19,4.82,2.34,9.65,3.52,14.48,.33,1.33,1.06,2.32,2.54,2.46,.69,.07,1.4,0,2.42,0,1.57-.2,3.45-.36,5.29-.72,3.94-.77,7.79-1.82,11-4.42,3.56-2.88,4.69-6.92,3.27-11.67Zm-5.91,8.57c-2.64,2.14-5.86,2.9-9.09,3.54-1.83,.36-3.7,.49-5.61,.74-.81-3.16-1.56-6.15-2.32-9.14-.06-.23-.08-.46-.14-.69q-.68-2.79,1.95-3.83c3.6-1.44,7.28-2.49,11.22-2.32,2.91,.13,5.09,1.56,5.89,3.99,1.14,3.43,.61,5.67-1.9,7.71Z"/><path d="M200.18,295.58c-1.08-2.47-2.95-4.32-5.17-5.83-4.15-2.83-8.84-4.28-13.68-5.37-1.38-.31-2.53,.33-3.17,1.75-2.07,4.57-4.09,9.16-6.17,13.73-.53,1.17-.32,2.14,.69,2.85,1.53,1.08,3.09,2.14,4.69,3.11,4.02,2.43,8.24,4.34,14.16,4.48,6.66,.22,11.43-8.35,8.64-14.72Zm-4.28,7.51c-1.33,2.34-3.42,3.36-6.13,3.11-4.91-.44-8.94-2.94-12.94-5.5-.23-.15-.39-.77-.28-1.03,1.62-3.67,3.29-7.32,5.01-11.11,5.24,1.47,10.45,2.84,14.08,7.32,1.89,2.34,1.62,4.8,.25,7.2Z"/><path d="M237.25,310.98c1.36-5.02,2.66-9.9,4.01-14.76,.2-.71,.47-1.48,.94-2,.88-.98,2.05-1.13,3.21-.48,1.22,.69,1.6,1.81,1.26,3.13-.85,3.26-1.75,6.51-2.67,9.96,1.82,.39,3.58,.78,5.35,1.16,1.42,.3,2.85,.58,4.28,.88,2.01,.42,2.83,1.53,2.5,3.37-.28,1.55-1.58,2.35-3.46,1.96-5.11-1.03-10.2-2.12-15.43-3.21Z"/><path d="M314.54,209.14c-.03-1.49,1.11-2.71,2.58-2.77,1.55-.06,2.82,1.16,2.82,2.69,0,1.49-1.18,2.68-2.67,2.69-1.52,.01-2.7-1.12-2.73-2.61Z"/><path d="M320.19,156.33c-.04,1.47-1.27,2.63-2.75,2.6-1.48-.03-2.66-1.24-2.65-2.72,.02-1.54,1.28-2.73,2.84-2.66,1.47,.06,2.6,1.29,2.56,2.78Z"/><path d="M80.96,282.62c-1.52,.03-2.68-1.09-2.72-2.61-.04-1.54,1.05-2.71,2.56-2.77,1.55-.06,2.82,1.15,2.81,2.68,0,1.49-1.17,2.68-2.65,2.7Z"/><path d="M127.14,309.87c-.02,1.48-1.21,2.67-2.69,2.68-1.54,0-2.78-1.24-2.73-2.77,.04-1.47,1.27-2.63,2.76-2.61,1.48,.02,2.69,1.24,2.67,2.7Z"/><path d="M297.23,260.73c-1.57-.1-2.55-1.29-2.45-2.98,.08-1.45,1.26-2.5,2.71-2.43,1.5,.07,2.77,1.47,2.64,2.91-.13,1.43-1.48,2.6-2.9,2.51Z"/><path d="M271.91,289.63c0,1.53-1.1,2.69-2.6,2.73-1.52,.04-2.77-1.21-2.76-2.75,.02-1.47,1.22-2.66,2.7-2.67,1.47-.01,2.65,1.18,2.66,2.68Z"/><path d="M302.88,246.19c1.48,.04,2.65,1.25,2.63,2.73-.02,1.54-1.27,2.72-2.84,2.65-1.5-.06-2.58-1.25-2.53-2.78,.05-1.5,1.24-2.64,2.73-2.6Z"/><path d="M322.45,177.42c-.02,1.54-1.15,2.67-2.65,2.64-1.45-.03-2.67-1.26-2.68-2.7,0-1.54,1.24-2.73,2.81-2.68,1.53,.05,2.54,1.15,2.52,2.75Z"/><path d="M136.97,313.72c.02,1.53-1.08,2.7-2.58,2.75-1.56,.05-2.8-1.15-2.79-2.7,.01-1.5,1.17-2.66,2.67-2.68,1.48-.02,2.68,1.15,2.69,2.63Z"/><path d="M59.18,110.34c1.49,.02,2.65,1.2,2.66,2.7,0,1.45-1.22,2.68-2.68,2.69-1.52,.01-2.75-1.26-2.71-2.79,.04-1.5,1.22-2.63,2.73-2.61Z"/><path d="M322.45,187.98c0,1.49-1.17,2.69-2.64,2.71-1.53,.02-2.75-1.23-2.72-2.78,.03-1.47,1.26-2.66,2.72-2.64,1.49,.03,2.64,1.21,2.64,2.71Z"/><path d="M321.62,198.61c-.02,1.45-1.25,2.66-2.72,2.66-1.53,0-2.75-1.27-2.7-2.8,.05-1.45,1.31-2.62,2.78-2.59,1.47,.03,2.67,1.27,2.65,2.73Z"/><path d="M254.45,301.94c-.02,1.55-1.14,2.67-2.66,2.65-1.44-.02-2.71-1.26-2.73-2.68-.02-1.49,1.29-2.74,2.82-2.7,1.53,.04,2.58,1.16,2.56,2.73Z"/><path d="M108.42,299.92c-.03,1.42-1.32,2.68-2.74,2.67-1.49,0-2.81-1.36-2.74-2.8,.07-1.47,1.32-2.61,2.81-2.58,1.45,.03,2.7,1.3,2.68,2.71Z"/><path d="M88.68,289.91c-1.46,.01-2.72-1.18-2.78-2.64-.06-1.48,1.24-2.76,2.79-2.74,1.49,.02,2.71,1.23,2.7,2.68-.01,1.42-1.28,2.68-2.72,2.7Z"/><path d="M61.31,252.15c1.42,0,2.73,1.26,2.75,2.66,.03,1.49-1.27,2.76-2.8,2.73-1.46-.02-2.71-1.28-2.68-2.7,.02-1.42,1.3-2.68,2.73-2.69Z"/><path d="M47.42,132.2c0-1.52,1.14-2.66,2.64-2.66,1.49,0,2.71,1.18,2.74,2.65,.03,1.49-1.28,2.78-2.79,2.74-1.49-.04-2.6-1.21-2.59-2.73Z"/><path d="M51.59,238.62c-1.45-.03-2.71-1.28-2.69-2.69,.02-1.38,1.34-2.68,2.74-2.69,1.48,0,2.79,1.33,2.74,2.81-.05,1.49-1.26,2.6-2.79,2.57Z"/><path d="M279.82,282.61c-.02,1.53-1.17,2.69-2.66,2.68-1.46,0-2.68-1.22-2.7-2.68-.02-1.51,1.27-2.78,2.77-2.75,1.48,.03,2.61,1.23,2.59,2.75Z"/><path d="M73.75,274.74c-1.55,0-2.65-1.08-2.66-2.63,0-1.58,1.17-2.77,2.73-2.74,1.44,.03,2.66,1.29,2.65,2.73-.01,1.47-1.21,2.62-2.72,2.63Z"/><path d="M287.17,274.96c-.02,1.57-1.11,2.64-2.67,2.63-1.49-.01-2.69-1.2-2.69-2.66,0-1.49,1.3-2.76,2.8-2.72,1.47,.04,2.58,1.24,2.56,2.76Z"/><path d="M263.46,296.06c.02,1.59-1.02,2.7-2.57,2.72-1.58,.02-2.81-1.17-2.8-2.7,.02-1.43,1.27-2.67,2.71-2.68,1.48-.01,2.64,1.15,2.66,2.66Z"/><path d="M117.51,305.27c-.01,1.51-1.18,2.67-2.67,2.67-1.4,0-2.7-1.29-2.72-2.69-.01-1.48,1.28-2.73,2.81-2.71,1.5,.02,2.59,1.17,2.58,2.72Z"/><path d="M43.53,184.29c-.02,1.5-1.19,2.64-2.7,2.64-1.48,0-2.7-1.19-2.71-2.66,0-1.5,1.29-2.77,2.8-2.73,1.46,.04,2.63,1.27,2.61,2.75Z"/><path d="M42.77,208.09c-1.51,0-2.66-1.16-2.66-2.67,0-1.57,1.22-2.76,2.77-2.71,1.47,.05,2.63,1.28,2.6,2.75-.03,1.49-1.21,2.64-2.71,2.63Z"/><path d="M314.7,222.12c-1.46-.05-2.62-1.26-2.61-2.75,.01-1.56,1.24-2.71,2.83-2.64,1.51,.07,2.59,1.26,2.54,2.78-.05,1.47-1.3,2.65-2.75,2.61Z"/><path d="M43.95,149.88c1.46-.03,2.74,1.18,2.77,2.61,.03,1.49-1.12,2.73-2.59,2.78-1.5,.05-2.89-1.23-2.89-2.67,0-1.4,1.28-2.69,2.71-2.72Z"/><path d="M315,148.55c-1.48-.06-2.65-1.31-2.59-2.77,.06-1.44,1.34-2.66,2.77-2.62,1.56,.05,2.71,1.31,2.62,2.86-.09,1.53-1.26,2.59-2.79,2.53Z"/><path d="M314.61,135.73c0,1.56-1.08,2.66-2.62,2.67-1.48,.01-2.72-1.17-2.75-2.62-.03-1.48,1.29-2.8,2.77-2.77,1.51,.03,2.6,1.18,2.6,2.72Z"/><path d="M293.94,266.73c0,1.53-1.14,2.67-2.66,2.66-1.5,0-2.69-1.17-2.71-2.65-.02-1.52,1.25-2.79,2.76-2.75,1.49,.03,2.62,1.21,2.61,2.74Z"/><path d="M306.09,116.27c0,1.5-1.14,2.68-2.62,2.72-1.52,.03-2.76-1.21-2.74-2.76,.02-1.48,1.21-2.65,2.71-2.65,1.45,0,2.64,1.21,2.65,2.69Z"/><path d="M301.79,108.14c0,1.5-1.14,2.68-2.62,2.72-1.52,.03-2.76-1.21-2.74-2.76,.02-1.48,1.21-2.65,2.71-2.65,1.45,0,2.64,1.21,2.65,2.69Z"/><path d="M94.24,293.93c-.02-1.52,1.08-2.71,2.57-2.77,1.52-.06,2.78,1.16,2.79,2.71,0,1.49-1.16,2.67-2.66,2.68-1.51,0-2.68-1.13-2.7-2.62Z"/><path d="M41.4,192.18c1.5,0,2.68,1.16,2.7,2.64,.02,1.52-1.24,2.78-2.75,2.75-1.49-.03-2.63-1.22-2.62-2.74,.01-1.51,1.16-2.66,2.67-2.66Z"/><path d="M64.7,101.31c1.5-.01,2.69,1.12,2.73,2.62,.04,1.47-1.14,2.72-2.6,2.76-1.55,.05-2.78-1.15-2.78-2.7,0-1.51,1.14-2.66,2.65-2.67Z"/><path d="M70.87,93.12c1.5-.01,2.69,1.12,2.73,2.62,.04,1.47-1.14,2.72-2.6,2.76-1.55,.05-2.78-1.15-2.78-2.7,0-1.51,1.14-2.66,2.65-2.67Z"/><path d="M50.58,225.97c.01,1.55-1.07,2.69-2.6,2.72-1.54,.03-2.81-1.22-2.79-2.73,.02-1.44,1.27-2.66,2.73-2.66,1.51,0,2.65,1.14,2.66,2.67Z"/><path d="M58.79,245.64c-.02,1.55-1.11,2.62-2.68,2.63-1.54,0-2.74-1.25-2.68-2.8,.06-1.44,1.34-2.63,2.78-2.59,1.49,.05,2.59,1.23,2.57,2.76Z"/><path d="M304.88,239.37c0-1.5,1.16-2.69,2.62-2.71,1.52-.01,2.79,1.27,2.75,2.77-.04,1.48-1.24,2.63-2.74,2.62-1.5,0-2.63-1.16-2.63-2.68Z"/><path d="M314.26,229.48c.03,1.41-1.21,2.71-2.64,2.77-1.47,.06-2.7-1.1-2.76-2.59-.07-1.58,1.08-2.79,2.66-2.8,1.48-.01,2.7,1.16,2.73,2.63Z"/><path d="M67.25,261.02c1.49,.02,2.68,1.23,2.67,2.69-.01,1.5-1.34,2.78-2.81,2.71-1.48-.07-2.54-1.24-2.51-2.78,.02-1.56,1.12-2.64,2.66-2.62Z"/><path d="M44.04,142.35c-.02-1.59,1.02-2.7,2.54-2.73,1.52-.03,2.84,1.23,2.82,2.7-.01,1.41-1.29,2.67-2.72,2.7-1.46,.02-2.63-1.15-2.64-2.66Z"/><path d="M43.76,173.58c.02,1.51-1.11,2.7-2.6,2.74-1.54,.04-2.79-1.19-2.77-2.72,.01-1.5,1.17-2.65,2.69-2.65,1.52,0,2.67,1.12,2.69,2.64Z"/><path d="M44.9,213.11c1.51-.03,2.67,1.08,2.74,2.6,.07,1.51-1.18,2.8-2.71,2.79-1.46-.01-2.69-1.24-2.69-2.68,0-1.48,1.18-2.68,2.66-2.71Z"/><path d="M176.24,284.68c-2.05,4.62-4.13,9.24-6.22,13.85-.59,1.3-1.62,1.94-3.05,1.75-4.17-.53-8.2-.12-12.23,1.19-3.74,1.22-7.31,1.59-10.75,1.27l-6.58-1.47c-3.45-1.21-6.76-3.07-9.97-5.37-3.06-2.2-5.89-4.73-7.56-8.22-2.97-6.21-.63-12.89,5.54-15.96,4.18-2.07,8.68-2.63,13.27-2.76,.42,0,.85,0,1.27,0,8.56-.09,16.51,2.35,24.04,6.19,3.84,1.96,7.52,4.25,11.24,6.45,1.37,.81,1.62,1.67,1,3.08Z"/><path d="M191.54,310.3c-5.92-.15-10.14-2.05-14.16-4.48-1.6-.97-3.15-2.03-4.69-3.11-1.01-.72-1.22-1.69-.69-2.85,2.07-4.57,4.1-9.16,6.17-13.73,.65-1.42,1.79-2.06,3.17-1.75,4.84,1.09,9.53,2.54,13.68,5.37,2.22,1.51,4.09,3.36,5.17,5.83,2.79,6.38-1.98,14.94-8.64,14.72Z"/><path d="M220.89,346.16c.35,1.33-.12,2.14-1.22,2.61-6.9,2.91-13.95,5.37-21.41,6.38-2.65,.36-5.33,.51-7.99,.76-7.35-.12-14.26-1.61-20.68-5.33-7.85-4.56-7.64-14.97-1.44-19.93,7.55-6.04,16.11-8.99,25.83-7.94,3.84,.41,7.29,2.15,10.69,3.86,2.79,1.4,5.7,2.11,8.79,2.28,2.46,.13,3.37,.99,3.96,3.4,1.13,4.64,2.26,9.29,3.47,13.92Z"/><path d="M244.14,341.95c-3.21,2.6-7.07,3.65-11,4.42-1.84,.36-3.72,.52-5.29,.72-1.01,0-1.72,.06-2.42,0-1.48-.14-2.21-1.13-2.54-2.46-1.18-4.83-2.34-9.66-3.52-14.48-.26-1.05-.04-1.95,.92-2.41,5.8-2.79,11.72-5.17,18.37-4.53,4.26,.41,7.56,3.12,8.75,7.08,1.42,4.75,.29,8.79-3.27,11.67Z"/><g><path d="M172.29,16.33c2.65,.2,5.22,.35,7.77,.63,.29,.03,.68,.7,.75,1.11,.71,3.97,1.35,7.96,2.02,11.94,.45,2.71,.9,5.41,1.41,8.5,2.72-6.93,5.31-13.53,7.89-20.12l7.81,.58c1.15,7.11,2.29,14.12,3.42,21.13l.24,.04c1.08-2.7,2.17-5.4,3.24-8.11,1.44-3.63,2.85-7.27,4.34-10.87,.15-.37,.8-.78,1.2-.76,2.49,.11,4.97,.33,7.73,.54-.81,2.02-1.49,3.71-2.17,5.39-2.96,7.31-5.93,14.63-8.89,21.94-.58,1.43-1.09,2.89-1.76,4.28-.18,.37-.8,.79-1.19,.76-2.36-.15-4.72-.45-7.08-.65-.71-.06-.89-.38-.99-1.03-.96-6.28-1.96-12.55-2.96-18.82-.05-.29-.15-.58-.32-1.25-2.69,6.76-5.27,13.23-7.8,19.58l-8.83-.66c-1.97-11.53-3.92-22.89-5.85-34.16Z"/><path d="M55.1,66.79c3.73-3.08,7.34-6.13,11.02-9.1,1.63-1.32,3.27-2.72,5.12-3.66,4.95-2.53,10.27-.39,12.26,4.81,.8,2.08,.48,4.12-.67,5.93,1.2-.23,2.43-.68,3.66-.66,4.66,.07,8.86,5.53,8,10.15-.5,2.67-1.88,4.81-3.88,6.52-4.65,3.96-9.38,7.82-14.21,11.83-7.1-8.6-14.17-17.17-21.3-25.81Zm23.35,15.39c2.31-1.98,4.64-3.81,6.76-5.86,1.34-1.29,1.11-3.13-.2-4.66-1.18-1.37-2.95-1.71-4.52-.57-2.28,1.67-4.43,3.52-6.72,5.37l4.68,5.71Zm-12.99-15.49c1.73,1.76,3.34,3.41,5.01,5.11,1.66-1.37,3.6-2.86,5.42-4.49,1.67-1.49,1.8-3.75,.46-5.31-1.22-1.42-3.1-1.61-4.75-.33-2.01,1.55-3.93,3.21-6.14,5.03Z"/><path d="M276.67,44.74l6.35,4.96-12.05,15.52c.73,.15,1.25,.4,1.73,.33,3.23-.47,6.45-1.05,9.69-1.5,.59-.08,1.37,.11,1.85,.47,2.24,1.64,4.42,3.37,6.85,5.26l-15.97,2.8c.5,5.88,.99,11.7,1.51,17.86-2.74-2.22-5.24-4.17-7.62-6.24-.42-.36-.47-1.24-.52-1.89-.28-3.17-.47-6.34-.77-9.5-.06-.58-.51-1.13-.93-2.01-2.05,2.65-3.85,4.97-5.75,7.42-2.09-1.62-4.14-3.22-6.35-4.94,7.33-9.51,14.64-18.98,21.99-28.53Z"/><path d="M239.85,64.73l-7.51-2.81,.69-1.82c-2.3,.68-4.44,.79-6.62,.24-6.91-1.74-10.79-8.23-9.05-15.16,1.08-4.28,3.29-7.76,7.33-9.78,5.46-2.72,11.84-1.01,15.3,4.02,.11,.17,.25,.32,.41,.53l.85-1.66,7.43,2.76c-2.95,7.89-5.86,15.7-8.84,23.68Zm-2.76-16.35c.34-3.46-2.05-6.39-5.46-6.71-3.41-.32-6.47,2.47-6.87,6.26-.35,3.39,2.03,6.3,5.41,6.6,3.53,.32,6.55-2.37,6.92-6.15Z"/><path d="M117.73,52.26c-5.41,2.86-10.76,5.69-16.22,8.56,1.48,1.75,3.2,2.73,5.37,2.29,2.26-.46,4.15-1.65,4.68-4.07,.28-1.29,.88-1.83,2.1-2.11,1.71-.39,3.37-.97,5.05-1.47,1.12,5.43-2.69,11.31-9.15,13.57-6.85,2.4-14.05-1.15-16.67-8-2.75-7.21,1-14.45,7.86-17.11,6.89-2.67,13.85,.7,16.98,8.34Zm-9.42-.65c-1.63-1.95-4.14-2.33-6.33-1.05-2.14,1.26-3.26,3.77-2.49,5.75l8.81-4.71Z"/><path d="M145.48,43.44c-5.84,1.79-11.62,3.56-17.54,5.37,1.27,2.01,2.77,3.38,5.07,3.26,2.47-.12,4.47-1.13,5.49-3.6,.17-.41,.57-.96,.92-1.01,2.16-.29,4.34-.46,6.53-.67-.33,6.57-6.05,11.59-13.38,11.83-6.75,.23-12.57-5.02-13.34-12.03-.76-6.93,3.67-12.88,10.72-14.35,5.93-1.23,12.92,1.38,15.52,11.2Zm-9.03-2.31c-1.6-2.39-3.79-3.09-6.36-2.15-2.13,.78-3.49,2.84-3.28,5.05,3.21-.97,6.4-1.93,9.63-2.91Z"/><path d="M304.53,94.19c-1.99-1.47-3.92-2.89-5.83-4.3,.94-2.37,.55-4.14-1.19-5.64-1.05-.9-2.21-1.1-2.91-.41-.9,.89-.46,1.83,.04,2.71,1.22,2.17,2.59,4.26,3.68,6.5,1.45,2.99,1.11,5.87-1.26,8.33-2.33,2.41-5.19,3.16-8.27,1.9-5.59-2.3-9.13-6.47-10.25-12.46-.37-1.96,.38-3.79,1.66-5.51l6.58,4.49c-.87,2.81-.22,4.88,1.95,6.33,.79,.53,1.66,.86,2.51,.19,.91-.73,.55-1.66,.11-2.45-1.09-1.95-2.29-3.84-3.38-5.78-1.32-2.35-1.92-4.85-.7-7.39,1.68-3.5,5.69-4.99,9.56-3.71,4.7,1.55,9.1,7.35,9.33,12.29,.08,1.69-.48,3.46-1.63,4.93Z"/><path d="M250.65,71.25c-2.39-1.34-4.59-2.58-6.93-3.89,5.84-10.51,11.65-20.95,17.49-31.46l7.06,3.89c-5.89,10.51-11.72,20.93-17.62,31.46Z"/><path d="M148.28,28.23l7.88-1.03c.21,1.47,.41,2.85,.65,4.51,2.17-3.94,5.04-6.3,9.64-5.81,.23,2.66,.44,5.25,.67,7.91-.44,.07-.77,.13-1.1,.16-5.83,.64-8.65,4.42-7.69,10.22,.42,2.58,.72,5.18,1.1,7.94l-7.92,1.04c-1.08-8.33-2.14-16.53-3.23-24.94Z"/></g></g></g></svg>