<?xml version="1.0" encoding="UTF-8"?><svg id="Layer_2" xmlns="http://www.w3.org/2000/svg" viewBox="0 0 184.67 472.07"><defs><style>.cls-1{fill:#fff;}</style></defs><g id="Layer_1-2"><g><g><path class="cls-1" d="M51.46,325.93C48.08,319.37-1.36,222.34,.55,173.52c.49-12.49,.32-25.83,.15-38.73C.2,95.24-.33,54.34,18.42,34.85,42.24,10.07,63.13,1.14,64.68,.5c1.25,.03,14.1,.52,29.23,7.1,14.61,6.35,34.39,19.85,45.68,48.09,22.12,55.29,29.93,89.12,26.97,116.76-1.66,15.54-3.03,19.35-5.09,25.13-1.69,4.73-3.79,10.61-6.9,24.82-7.2,32.92-9.95,64.44-8,73.21,.34,1.55-3.53,6.44-46.83,18.28-22.31,6.1-45.1,11.31-48.28,12.03Z"/><path d="M64.77,1c1.68,.05,14.25,.66,28.98,7.07,14.51,6.32,34.15,19.74,45.38,47.8,22.08,55.21,29.89,88.97,26.93,116.52-1.66,15.48-3.01,19.27-5.07,25.01-1.69,4.74-3.8,10.64-6.92,24.88-6.54,29.89-10.2,63.52-8,73.43,.05,.23,.11,2.39-13.51,7.49-7.84,2.93-18.93,6.37-32.96,10.21-21.56,5.9-43.58,10.96-47.89,11.94C47.1,316.34-.83,221.52,1.05,173.54c.49-12.5,.32-25.85,.15-38.76C.7,95.33,.17,54.54,18.78,35.19,38.25,14.94,57.25,4.04,64.77,1m-.18-1S43.06,8.5,18.06,34.5,2.06,122.5,.06,173.5s51.13,153,51.13,153c0,0,97.87-22,95.87-31s1-41,8-73,9-22,12-50-5-62-27-117S64.58,0,64.58,0h0Z"/></g><g><path class="cls-1" d="M133.37,471.57c-22.4,0-45.31-14.62-49.34-26.73-4.73-14.19-22.24-80.35-23.87-86.51l93.21-30.74c2.69,3.75,29.75,42.1,30.69,67.92,1.36,37.4-9.31,61.63-31.71,72.03-5.75,2.67-12.13,4.02-18.97,4.02Z"/><path d="M153.17,328.18c1.69,2.37,8.16,11.62,14.65,23.26,9.89,17.76,15.33,33.01,15.74,44.09,1.35,37.18-9.22,61.25-31.42,71.56-5.68,2.64-12,3.98-18.76,3.98-10.45,0-21.67-3.2-31.61-9.01-8.78-5.13-15.39-11.79-17.25-17.38-4.63-13.89-21.52-77.63-23.74-86.03l92.41-30.48m.38-1.18l-94,31s19,72,24,87c3.9,11.71,26.69,27.07,49.82,27.07,6.5,0,13.04-1.22,19.18-4.07,28-13,33-45,32-72.5-1-27.5-31-68.5-31-68.5h0Z"/></g></g></g></svg>