<?xml version="1.0" encoding="UTF-8"?><svg id="Layer_2" xmlns="http://www.w3.org/2000/svg" viewBox="0 0 184.67 472.07"><defs><style>.cls-1{fill:#fff;}</style></defs><g id="Layer_1-2"><g><g><path class="cls-1" d="M133.22,325.93c-3.19-.72-25.98-5.93-48.29-12.04-43.3-11.84-47.17-16.73-46.82-18.28,1.95-8.78-.8-40.29-8-73.21-3.11-14.21-5.21-20.09-6.9-24.82-2.06-5.78-3.43-9.59-5.09-25.13-2.96-27.64,4.85-61.47,26.97-116.76C56.38,27.45,76.16,13.95,90.76,7.6,105.89,1.02,118.75,.53,119.99,.5c1.55,.64,22.45,9.58,46.26,34.34,18.74,19.49,18.22,60.39,17.71,99.94-.17,12.9-.34,26.25,.15,38.73,1.92,48.82-47.53,145.85-50.9,152.41Z"/><path d="M119.91,1c7.52,3.03,26.52,13.94,45.99,34.19,18.6,19.35,18.08,60.14,17.57,99.59-.17,12.91-.34,26.26,.15,38.76,1.88,47.98-46.05,142.8-50.67,151.81-4.31-.98-26.32-6.04-47.88-11.94-14.03-3.84-25.12-7.27-32.96-10.21-13.62-5.1-13.56-7.26-13.51-7.49,2.2-9.91-1.46-43.54-8-73.43-3.12-14.24-5.22-20.14-6.92-24.88-2.05-5.74-3.41-9.54-5.07-25.01-2.95-27.56,4.85-61.31,26.93-116.52,11.22-28.06,30.87-41.48,45.38-47.8,14.73-6.41,27.3-7.02,28.98-7.07m.18-1S66.62,.5,44.62,55.5s-30,89-27,117,5,18,12,50,10,64,8,73,95.87,31,95.87,31c0,0,53.13-102,51.13-153s7-113-18-139S120.09,0,120.09,0h0Z"/></g><g><path class="cls-1" d="M51.3,471.57c-6.84,0-13.22-1.35-18.97-4.02C9.92,457.15-.74,432.91,.62,395.51c.94-25.82,28-64.18,30.69-67.92l93.21,30.74c-1.63,6.16-19.14,72.32-23.87,86.51-4.04,12.11-26.94,26.73-49.34,26.73h0Z"/><path d="M31.5,328.18l92.41,30.48c-2.22,8.4-19.11,72.14-23.74,86.03-1.86,5.59-8.47,12.25-17.25,17.38-9.94,5.81-21.17,9.01-31.61,9.01-6.77,0-13.08-1.34-18.76-3.98C10.34,456.79-.24,432.71,1.12,395.53c.4-11.08,5.84-26.33,15.74-44.09,6.49-11.65,12.96-20.89,14.65-23.26m-.38-1.18S1.12,367.99,.12,395.5c-1,27.5,4,59.5,32,72.5,6.15,2.85,12.68,4.07,19.18,4.07,23.13,0,45.91-15.36,49.82-27.07,5-15,24-87,24-87l-94-31h0Z"/></g></g></g></svg>